<?xml version="1.0" encoding="utf-8"?>
<!-- Generator: Adobe Illustrator 25.0.0, SVG Export Plug-In . SVG Version: 6.00 Build 0)  -->
<svg version="1.1" id="Layer_1" xmlns="http://www.w3.org/2000/svg" xmlns:xlink="http://www.w3.org/1999/xlink" x="0px" y="0px"
	 viewBox="0 0 595.28 841.89" style="enable-background:new 0 0 595.28 841.89;" xml:space="preserve">
<style type="text/css">
	.st0{fill:none;stroke:#000000;stroke-width:5;}
</style>
<path class="st0" d="M381.96,291.29c-6.74,7.49-13.67,15.05-20.82,22.67c-7.8,8.31-15.54,16.37-23.22,24.18
	c-10.31-10.46-20.61-20.93-30.92-31.39c-17.65-0.16-35.29-0.31-52.94-0.47c-7.96,8.43-15.93,16.87-23.89,25.3
	c7.65,8.28,15.3,16.55,22.96,24.83c24.83,0.31,49.66,0.62,74.49,0.94c4.88,2.19,10.31,5.07,15.93,8.9
	c12.35,8.42,20.7,18.06,26.03,25.48c8.66,9.31,17.32,18.62,25.97,27.93c1.7,3.56,3.72,8.82,4.69,15.46c0.91,6.3,0.55,11.66,0,15.46
	c-0.24,4.92-1.18,12.23-4.69,20.15c-3.8,8.58-8.6,13.34-20.82,25.95c-4.59,4.73-12.39,12.82-22.49,23.43
	c-3.53,3.06-9.24,7.35-17.13,10.59c0,0-5.95,2.97-13.12,3.75c-10.33,1.12-44.92,1.54-91.83,0.47c-3.39,0.35-8.64,0.45-14.52-1.41
	c-5.33-1.68-8.9-4.25-10.78-5.62c-8.04-5.89-23.42-21.66-41.7-44.04c14.52-14.84,29.05-29.67,43.57-44.51
	c9.99,9.99,19.99,19.99,29.98,29.98c22.8,0.94,45.6,1.87,68.4,2.81c8.75-8.59,17.49-17.18,26.24-25.77
	c-7.5-8.43-14.99-16.87-22.49-25.3c-20.98-0.81-41.96-1.62-62.94-2.43c-3.12,0.52-9.08,1.08-15.98-1.14
	c-9.09-2.91-14.37-8.88-16.35-11.38c-7.32-6.24-14.86-13.06-22.54-20.48c-8.65-8.36-16.53-16.59-23.69-24.54
	c-2.61-4.51-7.03-13.57-7.5-25.77c-0.62-16.18,6.1-27.96,8.9-32.33c7.43-8.99,15.97-18.51,25.73-28.23
	c10.19-10.15,20.17-18.97,29.55-26.59c4.84-1.72,9.68-3.44,14.52-5.15c12.65-0.31,25.3-0.62,37.95-0.94
	c12.28-0.51,24.56-1.03,36.84-1.54c3.82,0.52,8.73,1.54,14.19,3.61c2.65,1.01,7.76,3.15,13.42,7.01c7.77,5.3,12.31,10.92,15.2,14.34
	C361.57,271.9,369.79,280.78,381.96,291.29z"/>
</svg>
