<?xml version="1.0" encoding="utf-8"?>
<!-- Generator: Adobe Illustrator 25.0.0, SVG Export Plug-In . SVG Version: 6.00 Build 0)  -->
<svg version="1.1" id="Layer_1" xmlns="http://www.w3.org/2000/svg" xmlns:xlink="http://www.w3.org/1999/xlink" x="0px" y="0px"
	 viewBox="0 0 595.3 841.9" style="enable-background:new 0 0 595.3 841.9;" xml:space="preserve">
<style type="text/css">
	.st0{fill:none;stroke:#704028;stroke-width:3;}
</style>
<path class="st0" d="M382,291.3c-6.7,7.5-13.7,15-20.8,22.7c-7.8,8.3-15.5,16.4-23.2,24.2c-10.3-10.5-20.6-20.9-30.9-31.4
	c-17.6-0.2-35.3-0.3-52.9-0.5c-8,8.4-15.9,16.9-23.9,25.3c7.6,8.3,15.3,16.5,23,24.8c24.8,0.3,49.7,0.6,74.5,0.9
	c4.9,2.2,10.3,5.1,15.9,8.9c12.5,8.5,20.8,18.3,25.7,24c0.8,1,1.5,1.8,2,2.4c8.1,9,16.2,18,24.3,27c1.7,3.6,3.7,8.8,4.7,15.5
	c0.9,6.3,0.5,11.7,0,15.5c-0.5,3.2-1.2,11.8-4.7,20.1c-2.3,5.5-4.3,7.7-18.9,24c-16.1,18-18.4,20.9-24.4,25.4
	c-6.7,5.1-12.9,8.5-17.1,10.6c0,0-6,3-13.1,3.8c-10.3,1.1-44.9,1.5-91.8,0.5c-3.4,0.3-8.6,0.5-14.5-1.4c-5.3-1.7-8.9-4.2-10.8-5.6
	c-8-5.9-23.4-21.7-41.7-44c14.5-14.8,29.1-29.7,43.6-44.5c10,10,20,20,30,30c22.8,0.9,45.6,1.9,68.4,2.8
	c8.8-8.6,17.5-17.2,26.2-25.8c-7.5-8.4-15-16.9-22.5-25.3c-21-0.8-42-1.6-62.9-2.4c-3.1,0.5-9.1,1.1-16-1.1
	c-9.1-2.9-14.4-8.9-16.4-11.4c-7.3-6.2-14.9-13.1-22.5-20.5c-8.6-8.4-16.5-16.6-23.7-24.5c-2.6-4.5-7-13.6-7.5-25.8
	c-0.6-16.2,6.1-28,8.9-32.3c7.4-9,16-18.5,25.7-28.2c10.2-10.1,20.2-19,29.6-26.6c4.8-1.7,9.7-3.4,14.5-5.2
	c12.6-0.3,25.3-0.6,37.9-0.9c12.3-0.5,24.6-1,36.8-1.5c3.8,0.5,8.7,1.5,14.2,3.6c2.6,1,7.8,3.2,13.4,7c7.8,5.3,12.3,10.9,15.2,14.3
	C361.6,271.9,369.8,280.8,382,291.3z"/>
<path class="st0" d="M446.5,376.5"/>
<path class="st0" d="M393.1,279.8c-6.7,7.5-13.7,15-20.8,22.7c-7.8,8.3-15.5,16.4-23.2,24.2c-10.3-10.5-20.6-20.9-30.9-31.4
	c-17.6-0.2-35.3-0.3-52.9-0.5c-8,8.4-15.9,16.9-23.9,25.3c7.6,8.3,15.3,16.5,23,24.8c24.8,0.3,49.7,0.6,74.5,0.9
	c4.9,2.2,10.3,5.1,15.9,8.9c12.5,8.5,20.8,18.3,25.7,24c0.8,1,1.5,1.8,2,2.4c8.1,9,16.2,18,24.3,27c1.7,3.6,3.7,8.8,4.7,15.5
	c0.9,6.3,0.5,11.7,0,15.5c-0.5,3.2-1.2,11.8-4.7,20.1c-2.3,5.5-4.3,7.7-18.9,24c-16.1,18-18.4,20.9-24.4,25.4
	c-6.7,5.1-12.9,8.5-17.1,10.6c0,0-6,3-13.1,3.8c-10.3,1.1-44.9,1.5-91.8,0.5c-3.4,0.3-8.6,0.5-14.5-1.4c-5.3-1.7-8.9-4.2-10.8-5.6
	c-8-5.9-23.4-21.7-41.7-44c14.5-14.8,29.1-29.7,43.6-44.5c10,10,20,20,30,30c22.8,0.9,45.6,1.9,68.4,2.8
	c8.8-8.6,17.5-17.2,26.2-25.8c-7.5-8.4-15-16.9-22.5-25.3c-21-0.8-42-1.6-62.9-2.4c-3.1,0.5-9.1,1.1-16-1.1
	c-9.1-2.9-14.4-8.9-16.4-11.4c-7.3-6.2-14.9-13.1-22.5-20.5c-8.6-8.4-16.5-16.6-23.7-24.5c-2.6-4.5-7-13.6-7.5-25.8
	c-0.6-16.2,6.1-28,8.9-32.3c7.4-9,16-18.5,25.7-28.2c10.2-10.1,20.2-19,29.6-26.6c4.8-1.7,9.7-3.4,14.5-5.2
	c12.6-0.3,25.3-0.6,37.9-0.9c12.3-0.5,24.6-1,36.8-1.5c3.8,0.5,8.7,1.5,14.2,3.6c2.6,1,7.8,3.2,13.4,7c7.8,5.3,12.3,10.9,15.2,14.3
	C372.7,260.4,380.9,269.3,393.1,279.8z"/>
</svg>
