<svg xmlns="http://www.w3.org/2000/svg" xmlns:xlink="http://www.w3.org/1999/xlink" width="512" height="512"><defs><path id="a" d="M508.897 3.829H0v430.963h508.897V3.83z"/></defs><g fill="none" fill-rule="evenodd"><path fill="#F8E6C4" d="m376.413 45.554 121.961 32.42V455.51l-121.96-32.42z"/><path fill="#010202" d="m376.413 45.554 121.961 32.42V455.51l-121.96-32.42z" opacity=".2"/><path fill="#F8E6C4" d="m376.413 45.554-121.96 32.42V455.51l121.96-32.42zM132.485 45.554 10.523 77.974V455.51l121.962-32.42zM132.485 45.554l121.96 32.42V455.51l-121.96-32.42z"/><path fill="#010202" d="m132.485 45.554 121.96 32.42V455.51l-121.96-32.42z" opacity=".2"/><path fill="#FEFEFE" d="m83.863 136.927-35.237 35.232M83.863 172.163 48.626 136.93M453.921 315.753l-35.237 35.24M453.921 350.99l-35.237-35.24"/><g transform="translate(0 38.184)"><mask id="b" fill="#fff"><use xlink:href="#a"/></mask><path fill="#2E2E30" d="m487.856 410.591-100.927-26.824v-71.11h9.994c5.808 0 10.521-4.712 10.521-10.519 0-5.806-4.713-10.52-10.52-10.52h-9.995V28.002l100.927 26.83v355.76Zm-222.881-97.934h18.81c5.808 0 10.521-4.712 10.521-10.519 0-5.806-4.713-10.52-10.52-10.52h-18.811v-64.285h10.555c5.808 0 10.52-4.713 10.52-10.52 0-5.806-4.712-10.519-10.52-10.519h-10.555V54.832L365.888 28v270.455c-.428 1.15-.695 2.385-.695 3.682 0 1.304.267 2.532.695 3.682v77.947l-100.913 26.824v-97.934ZM143.007 28.001l100.927 26.83v59.715H223.58c-5.807 0-10.52 4.712-10.52 10.519 0 5.806 4.713 10.52 10.52 10.52h20.354v79.875c-.063.449-.14.89-.14 1.353 0 .463.077.912.14 1.36v192.418l-100.927-26.824V28.001ZM21.038 54.83l100.927-26.83v86.545H110.45c-5.807 0-10.52 4.712-10.52 10.519 0 5.806 4.713 10.52 10.52 10.52h11.516v248.182L21.038 410.591V54.831Zm480.046-18.254L379.116 4.157c-.106-.028-.21-.02-.316-.049-.407-.091-.814-.133-1.227-.182-.393-.042-.786-.098-1.186-.098-.364 0-.715.056-1.08.09-.449.05-.89.092-1.325.197-.092.021-.183.014-.274.042L254.454 35.855 135.194 4.157c-.106-.028-.211-.02-.31-.049-.406-.091-.82-.133-1.234-.182-.4-.042-.792-.098-1.185-.098-.358 0-.715.056-1.08.09-.442.05-.89.092-1.326.197-.091.021-.19.014-.28.042L7.817 36.577A10.512 10.512 0 0 0-.003 46.74v377.534c0 3.268 1.522 6.347 4.11 8.345a10.544 10.544 0 0 0 6.41 2.174c.906 0 1.817-.112 2.708-.357l119.261-31.698 119.26 31.698c.899.245 1.803.357 2.708.357.905 0 1.81-.112 2.7-.357l119.254-31.698 119.261 31.698c.898.245 1.803.357 2.708.357 2.293 0 4.551-.75 6.41-2.174a10.547 10.547 0 0 0 4.11-8.345V46.739c0-4.762-3.205-8.941-7.813-10.162Z" mask="url(#b)"/></g><path fill="#2E2E30" d="M91.302 136.438a10.516 10.516 0 0 0-14.877 0l-10.183 10.183-10.177-10.183c-4.11-4.11-10.773-4.11-14.883 0-4.103 4.11-4.103 10.765 0 14.874l10.184 10.183-10.184 10.175c-4.103 4.11-4.103 10.772 0 14.882a10.517 10.517 0 0 0 7.441 3.078c2.693 0 5.387-1.03 7.442-3.078l10.177-10.183 10.183 10.183a10.513 10.513 0 0 0 7.435 3.078c2.693 0 5.387-1.03 7.442-3.078 4.11-4.11 4.11-10.772 0-14.882l-5.997-5.989c.19-.785.308-1.591.308-2.433 0-1.802-.49-3.471-1.29-4.958l6.979-6.978a10.513 10.513 0 0 0 0-14.874M190.822 297.657c0-1.634.126-3.268.364-4.852.884-5.744-3.065-11.109-8.809-11.985-5.702-.856-11.11 3.064-11.986 8.8a52.77 52.77 0 0 0-.61 8.037 52.879 52.879 0 0 0 3.135 18.023 10.529 10.529 0 0 0 13.473 6.326c5.464-1.978 8.297-8.009 6.326-13.472a31.86 31.86 0 0 1-1.893-10.877M227.226 329.804h-4.257c-4.32 0-8.5-.834-12.442-2.482-5.359-2.266-11.524.273-13.768 5.624-2.252 5.358.266 11.522 5.632 13.766 6.523 2.742 13.445 4.13 20.578 4.13h4.257c5.808 0 10.52-4.712 10.52-10.519 0-5.806-4.712-10.519-10.52-10.519M190.466 268.093a10.512 10.512 0 0 0 8.74 4.65c2.02 0 4.06-.583 5.863-1.789a32.143 32.143 0 0 1 14.876-5.302c5.779-.533 10.036-5.659 9.496-11.444-.547-5.793-5.695-10.113-11.453-9.496a53.14 53.14 0 0 0-24.66 8.78c-4.819 3.247-6.102 9.783-2.862 14.6M198.753 163.25c0-5.806-4.713-10.52-10.52-10.52h-21.21c-5.814 0-10.52 4.714-10.52 10.52 0 5.807 4.706 10.52 10.52 10.52h21.21c5.807 0 10.52-4.713 10.52-10.52M340.356 329.804h-21.21c-5.814 0-10.52 4.713-10.52 10.52 0 5.806 4.706 10.519 10.52 10.519h21.21c5.807 0 10.52-4.713 10.52-10.52 0-5.806-4.713-10.519-10.52-10.519M314.726 260.1c7.82-3.702 14.799-9.27 20.185-16.101 3.598-4.558 2.813-11.178-1.746-14.769-4.566-3.59-11.18-2.812-14.778 1.746a35.68 35.68 0 0 1-12.674 10.113c-5.246 2.49-7.49 8.759-5 14.011a10.527 10.527 0 0 0 9.51 6.017 10.45 10.45 0 0 0 4.503-1.017M325.767 205.45c.561 5.414 5.127 9.447 10.45 9.447.365 0 .73-.021 1.095-.057 5.78-.596 9.98-5.764 9.384-11.543a56.347 56.347 0 0 0-8.5-24.418c-3.114-4.91-9.63-6.326-14.519-3.219-4.902 3.114-6.34 9.622-3.219 14.516a35.397 35.397 0 0 1 5.31 15.274M311.5 166.935c1.347-5.66-2.146-11.326-7.792-12.673a56.78 56.78 0 0 0-13.116-1.528H280.15c-5.807 0-10.52 4.705-10.52 10.519 0 5.807 4.713 10.52 10.52 10.52h10.443c2.785 0 5.562.322 8.234.953.828.203 1.649.287 2.448.287 4.762 0 9.076-3.254 10.226-8.078M411.24 365.375a10.488 10.488 0 0 0 7.441 3.079c2.687 0 5.38-1.024 7.435-3.079l10.184-10.182 10.177 10.182a10.488 10.488 0 0 0 7.441 3.079c2.693 0 5.387-1.024 7.442-3.079 4.103-4.11 4.103-10.764 0-14.874l-7.814-7.812c.176-.765.288-1.55.288-2.364 0-.82-.112-1.606-.288-2.377l7.814-7.805c4.103-4.11 4.103-10.772 0-14.881-4.11-4.103-10.773-4.103-14.883 0L436.3 325.444l-10.184-10.182c-4.11-4.103-10.766-4.103-14.876 0-4.11 4.11-4.11 10.771 0 14.88l10.184 10.176-10.184 10.183a10.513 10.513 0 0 0 0 14.874"/></g></svg>